<?xml version="1.0" standalone="no"?>
<!DOCTYPE svg PUBLIC "-//W3C//DTD SVG 20010904//EN"
 "http://www.w3.org/TR/2001/REC-SVG-20010904/DTD/svg10.dtd">
<svg version="1.0" xmlns="http://www.w3.org/2000/svg"
 width="1024.000000pt" height="1024.000000pt" viewBox="0 0 1024.000000 1024.000000"
 preserveAspectRatio="xMidYMid meet">
<metadata>
Created by potrace 1.11, written by Peter Selinger 2001-2013
</metadata>
<g transform="translate(0.000000,1024.000000) scale(0.100000,-0.100000)"
fill="#000000" stroke="none">
<path d="M6780 10057 c-3 -3 -41 -7 -84 -11 -44 -4 -82 -9 -86 -11 -4 -3 -25
-7 -46 -11 -52 -7 -245 -73 -264 -89 -8 -7 -25 -16 -37 -19 -43 -13 -178 -118
-250 -193 -85 -88 -157 -192 -218 -318 -43 -89 -109 -271 -118 -330 -3 -16
-10 -52 -16 -80 -31 -147 -39 -261 -37 -483 l2 -203 -33 6 c-142 22 -429 39
-668 39 -144 0 -427 -12 -464 -19 -11 -2 -53 -6 -93 -9 -40 -4 -86 -9 -103
-12 -16 -3 -43 -7 -60 -9 -40 -4 -105 -15 -131 -20 -12 -3 -39 -7 -60 -11 -73
-11 -288 -64 -404 -100 -228 -71 -457 -176 -625 -288 -49 -33 -92 -62 -95 -65
-3 -3 -27 -24 -55 -46 -80 -64 -133 -114 -211 -203 -204 -233 -322 -508 -361
-842 -10 -86 -10 -327 0 -415 33 -299 131 -555 294 -768 84 -109 323 -336 378
-358 6 -2 35 -20 65 -40 169 -111 295 -171 522 -253 l117 -42 -42 -21 c-23
-11 -76 -38 -117 -58 -811 -405 -1180 -776 -1285 -1290 -40 -198 -40 -492 1
-665 56 -239 168 -411 374 -575 154 -122 311 -191 559 -245 51 -12 114 -23
140 -26 25 -3 71 -9 101 -13 30 -4 162 -7 292 -6 131 0 238 -3 238 -6 0 -15
-97 -94 -162 -133 -125 -73 -376 -149 -568 -171 -54 -6 -81 -9 -170 -20 -25
-4 -61 -8 -80 -10 -274 -31 -570 -100 -691 -161 -136 -68 -212 -228 -204 -429
8 -184 126 -363 333 -504 195 -134 625 -275 1020 -335 15 -3 45 -7 67 -11 22
-3 55 -8 73 -10 18 -2 49 -6 70 -9 34 -5 64 -8 197 -21 101 -10 331 -25 480
-30 149 -6 679 -6 760 -1 33 3 104 7 158 11 54 4 108 8 120 10 12 2 52 6 89
10 37 3 77 8 90 10 13 2 41 6 63 10 507 74 936 218 1328 444 252 145 408 262
583 436 200 199 337 393 457 645 41 86 110 269 122 323 2 12 9 40 15 62 13 52
37 194 45 270 12 101 4 432 -10 455 -2 3 -6 25 -10 49 -28 189 -132 407 -265
553 -182 201 -554 374 -920 427 -106 15 -147 20 -210 27 -30 3 -705 8 -1500 9
-795 2 -1459 6 -1476 8 -116 16 -210 81 -255 177 -28 59 -34 89 -33 190 0 177
59 278 253 432 40 33 99 76 130 98 l57 38 118 -23 c65 -13 141 -27 170 -30 28
-3 58 -8 66 -10 8 -2 38 -6 65 -9 28 -3 68 -8 90 -10 57 -7 177 -16 270 -21
98 -6 548 -6 628 0 117 8 213 16 247 20 19 2 56 7 82 10 116 13 334 51 458 79
132 31 435 129 454 147 6 5 16 9 24 9 28 0 286 136 387 205 130 88 280 223
375 335 229 276 344 624 342 1035 -3 396 -105 711 -321 984 -278 353 -771 622
-1356 741 -33 7 -65 16 -71 21 -15 12 -18 61 -18 299 0 113 6 243 13 290 14
100 52 260 60 260 3 -1 30 -40 60 -89 59 -98 149 -204 229 -271 94 -80 264
-166 366 -186 11 -2 32 -6 46 -9 62 -13 80 -16 150 -22 206 -18 373 -4 525 44
306 99 517 306 574 563 15 65 6 274 -13 340 -55 183 -184 329 -383 433 -65 35
-200 82 -273 96 -30 6 -66 13 -80 16 -29 8 -354 18 -360 12z m-1698 -1936
c111 -42 202 -138 273 -287 33 -69 84 -230 101 -319 4 -22 8 -42 9 -45 1 -3 5
-30 9 -60 5 -30 10 -62 11 -70 1 -8 6 -46 9 -85 4 -38 9 -81 11 -95 26 -175
26 -1113 1 -1270 -3 -14 -7 -61 -11 -105 -4 -44 -8 -82 -10 -86 -2 -3 -6 -27
-10 -53 -17 -149 -71 -338 -127 -451 -85 -171 -184 -261 -320 -289 -233 -49
-406 78 -529 389 -61 155 -104 422 -126 780 -15 248 -8 855 12 1065 8 83 16
155 20 179 2 14 7 46 10 71 48 347 185 628 345 710 102 52 218 59 322 21z
m1048 -6175 c139 -15 231 -50 293 -112 81 -81 101 -177 83 -390 -6 -72 -8 -86
-27 -169 -79 -346 -320 -640 -665 -813 -220 -110 -478 -165 -779 -166 -263 0
-461 41 -624 130 -228 125 -360 322 -405 603 -17 105 -13 334 9 471 2 14 9 56
15 94 6 38 13 73 15 77 3 3 7 23 11 43 5 34 36 129 65 203 7 18 20 34 28 35
32 6 1920 0 1981 -6z"/>
</g>
</svg>
